<?xml version="1.0" encoding="UTF-8" standalone="no" ?>
<svg width="108px" height="108px" viewBox="0 0 108 108" version="1.1" xmlns="http://www.w3.org/2000/svg" xmlns:xlink="http://www.w3.org/1999/xlink" preserveAspectRatio="xMidYMid">
    <g>
        <path d="M104.528658,49.5295708 L58.0126393,3.01705936 C55.3357443,0.337826484 50.990758,0.337826484 48.3103562,3.01705936 L38.6513242,12.6760913 L50.9042557,24.9290228 C53.7518174,23.9669772 57.0166941,24.6122374 59.2867945,26.8823379 C61.5674155,29.1664658 62.208,32.4593973 61.2225753,35.3163105 L73.0313059,47.1250411 C75.8882192,46.1407854 79.1846575,46.777863 81.4664475,49.0631598 C84.6553425,52.2508858 84.6553425,57.4176438 81.4664475,60.6077078 C78.2763836,63.7977717 73.1096256,63.7977717 69.9183927,60.6077078 C67.5197078,58.2066849 66.9270502,54.6834703 68.141589,51.7283653 L57.1289132,40.7156895 L57.1277443,69.6962922 C57.9050959,70.0820457 58.6391963,70.5952146 59.2867945,71.2404749 C62.4756895,74.4282009 62.4756895,79.5949589 59.2867945,82.7873607 C56.0967306,85.9762557 50.9276347,85.9762557 47.7422466,82.7873607 C44.5533516,79.5949589 44.5533516,74.4282009 47.7422466,71.2404749 C48.5301187,70.4537717 49.4418995,69.8587763 50.4144658,69.4589954 L50.4144658,40.2083653 C49.4418995,39.8109224 48.5312877,39.2194338 47.7422466,38.4268858 C45.3260274,36.0141735 44.7450594,32.4687489 45.9829772,29.5019543 L33.9053881,17.4220274 L2.01059361,49.314484 C-0.669808219,51.9960548 -0.669808219,56.3410411 2.01059361,59.020274 L48.5266119,105.533954 C51.2046758,108.213187 55.5484932,108.213187 58.2300639,105.533954 L104.528658,59.2365297 C107.20789,56.5561279 107.20789,52.2088037 104.528658,49.5295708" fill="#DE4C36"></path>
    </g>
</svg>
